<mxfile host="app.diagrams.net" modified="2021-05-20T09:57:30.807Z" agent="5.0 (Windows NT 10.0; Win64; x64) AppleWebKit/537.36 (KHTML, like Gecko) Chrome/90.0.4430.93 Safari/537.36" etag="JNQ1gZueVK9dnSiHVk5G" version="14.6.13" type="github">
  <diagram id="RouKwzfxXNToQLrUlVNL" name="Page-1">
    <mxGraphModel dx="1422" dy="762" grid="1" gridSize="10" guides="1" tooltips="1" connect="1" arrows="1" fold="1" page="1" pageScale="1" pageWidth="827" pageHeight="1169" math="0" shadow="0">
      <root>
        <mxCell id="0" />
        <mxCell id="1" parent="0" />
        <mxCell id="mBJ9Ztf5EjoHS6MEo9wN-1" value="Erp-Agent" style="shape=process;whiteSpace=wrap;html=1;backgroundOutline=1;fillColor=#dae8fc;strokeColor=#6c8ebf;" parent="1" vertex="1">
          <mxGeometry x="360" y="210" width="120" height="60" as="geometry" />
        </mxCell>
        <mxCell id="mBJ9Ztf5EjoHS6MEo9wN-4" value="MQ消息" style="whiteSpace=wrap;html=1;aspect=fixed;fillColor=#f5f5f5;strokeColor=#666666;fontColor=#333333;" parent="1" vertex="1">
          <mxGeometry x="119" y="200" width="80" height="80" as="geometry" />
        </mxCell>
        <mxCell id="mBJ9Ztf5EjoHS6MEo9wN-9" value="Erp&lt;br&gt;马帮&lt;br&gt;店小秘" style="ellipse;whiteSpace=wrap;html=1;fillColor=#fff2cc;strokeColor=#d6b656;" parent="1" vertex="1">
          <mxGeometry x="599" y="200" width="120" height="80" as="geometry" />
        </mxCell>
        <mxCell id="mBJ9Ztf5EjoHS6MEo9wN-19" value="" style="endArrow=classic;startArrow=classic;html=1;exitX=0;exitY=0.5;exitDx=0;exitDy=0;" parent="1" source="mBJ9Ztf5EjoHS6MEo9wN-9" edge="1">
          <mxGeometry width="50" height="50" relative="1" as="geometry">
            <mxPoint x="429" y="290" as="sourcePoint" />
            <mxPoint x="479" y="240" as="targetPoint" />
          </mxGeometry>
        </mxCell>
        <mxCell id="mBJ9Ztf5EjoHS6MEo9wN-20" value="" style="endArrow=classic;startArrow=classic;html=1;exitX=1;exitY=0.5;exitDx=0;exitDy=0;" parent="1" source="mBJ9Ztf5EjoHS6MEo9wN-4" edge="1">
          <mxGeometry width="50" height="50" relative="1" as="geometry">
            <mxPoint x="429" y="290" as="sourcePoint" />
            <mxPoint x="359" y="240" as="targetPoint" />
          </mxGeometry>
        </mxCell>
        <mxCell id="mBJ9Ztf5EjoHS6MEo9wN-30" value="&lt;font color=&quot;#ff8000&quot;&gt;物流回调&lt;/font&gt;" style="html=1;verticalAlign=bottom;endArrow=open;dashed=1;endSize=8;strokeColor=#FF8000;" parent="1" edge="1">
          <mxGeometry relative="1" as="geometry">
            <mxPoint x="325" y="279" as="sourcePoint" />
            <mxPoint x="245" y="279" as="targetPoint" />
          </mxGeometry>
        </mxCell>
        <mxCell id="mBJ9Ztf5EjoHS6MEo9wN-32" value="&lt;font color=&quot;#ff8000&quot;&gt;物流回调&lt;/font&gt;" style="html=1;verticalAlign=bottom;endArrow=open;dashed=1;endSize=8;strokeColor=#FF8000;" parent="1" edge="1">
          <mxGeometry relative="1" as="geometry">
            <mxPoint x="591" y="280" as="sourcePoint" />
            <mxPoint x="511" y="280" as="targetPoint" />
          </mxGeometry>
        </mxCell>
        <mxCell id="mBJ9Ztf5EjoHS6MEo9wN-33" value="&lt;font color=&quot;#007fff&quot;&gt;订单创建&lt;/font&gt;" style="html=1;verticalAlign=bottom;endArrow=open;dashed=1;endSize=8;fillColor=#f5f5f5;strokeColor=#0000FF;" parent="1" edge="1">
          <mxGeometry x="0.05" y="15" relative="1" as="geometry">
            <mxPoint x="243" y="212" as="sourcePoint" />
            <mxPoint x="323" y="212" as="targetPoint" />
            <mxPoint as="offset" />
          </mxGeometry>
        </mxCell>
        <mxCell id="mBJ9Ztf5EjoHS6MEo9wN-35" value="&lt;font color=&quot;#007fff&quot;&gt;订单创建&lt;/font&gt;" style="html=1;verticalAlign=bottom;endArrow=open;dashed=1;endSize=8;fillColor=#f5f5f5;strokeColor=#0000FF;" parent="1" edge="1">
          <mxGeometry x="0.05" y="15" relative="1" as="geometry">
            <mxPoint x="506" y="212" as="sourcePoint" />
            <mxPoint x="586" y="212" as="targetPoint" />
            <mxPoint as="offset" />
          </mxGeometry>
        </mxCell>
      </root>
    </mxGraphModel>
  </diagram>
</mxfile>
